<?xml version="1.0" encoding="iso-8859-1"?>
<!-- Generator: Adobe Illustrator 19.0.0, SVG Export Plug-In . SVG Version: 6.00 Build 0)  -->
<svg version="1.1" id="Layer_1" xmlns="http://www.w3.org/2000/svg" xmlns:xlink="http://www.w3.org/1999/xlink" x="0px" y="0px"
	 viewBox="0 0 503.607 503.607" style="enable-background:new 0 0 503.607 503.607;" xml:space="preserve">
<g>
	<g>
		<g>
			<path d="M302.164,318.951c0,4.633-3.752,8.393-8.393,8.393h-83.934c-4.642,0-8.393-3.76-8.393-8.393v-83.934h-33.574v218.23
				h33.574v-83.934c0-4.633,3.752-8.393,8.393-8.393h83.934c4.642,0,8.393,3.76,8.393,8.393v83.934h33.574v-218.23h-33.574V318.951z
				"/>
			<path d="M234.582,120.164l-7.797,23.401l19.775-15.822c1.528-1.225,3.391-1.838,5.246-1.838c1.847,0,3.71,0.613,5.246,1.838
				l19.767,15.822l-7.789-23.401c-1.116-3.332-0.034-7.009,2.711-9.208l23.283-18.625h-26.431c-3.424,0-6.522-2.09-7.789-5.271
				l-8.998-22.427l-9.006,22.427c-1.267,3.181-4.356,5.271-7.781,5.271h-26.439l23.292,18.625
				C234.615,113.155,235.698,116.832,234.582,120.164z"/>
			<path d="M470.033,0H33.574C15.058,0,0,15.058,0,33.574v436.459c0,18.516,15.058,33.574,33.574,33.574h436.459
				c18.516,0,33.574-15.058,33.574-33.574V33.574C503.607,15.058,488.549,0,470.033,0z M176.741,81.156
				c1.175-3.366,4.348-5.615,7.915-5.615h44.678l14.68-36.57c1.276-3.181,4.365-5.271,7.789-5.271c3.425,0,6.513,2.09,7.789,5.271
				l14.68,36.57h44.678c3.567,0,6.74,2.249,7.915,5.615c1.183,3.366,0.109,7.109-2.669,9.334l-37.401,29.914l14.932,44.813
				c1.183,3.525-0.101,7.411-3.156,9.535c-1.452,1.007-3.131,1.511-4.801,1.511c-1.863,0-3.71-0.613-5.246-1.838l-36.721-29.377
				l-36.721,29.377c-2.929,2.333-6.992,2.451-10.047,0.327s-4.339-6.01-3.156-9.535l14.932-44.813L179.41,90.49
				C176.632,88.265,175.557,84.522,176.741,81.156z M352.525,461.639c0,4.633-3.752,8.393-8.393,8.393H293.77
				c-4.642,0-8.393-3.76-8.393-8.393v-83.934H218.23v83.934c0,4.633-3.752,8.393-8.393,8.393h-50.361
				c-4.642,0-8.393-3.76-8.393-8.393V226.623c0-4.633,3.752-8.393,8.393-8.393h50.361c4.642,0,8.393,3.76,8.393,8.393v83.934h67.148
				v-83.934c0-4.633,3.752-8.393,8.393-8.393h50.361c4.642,0,8.393,3.76,8.393,8.393V461.639z"/>
		</g>
	</g>
</g>
<g>
</g>
<g>
</g>
<g>
</g>
<g>
</g>
<g>
</g>
<g>
</g>
<g>
</g>
<g>
</g>
<g>
</g>
<g>
</g>
<g>
</g>
<g>
</g>
<g>
</g>
<g>
</g>
<g>
</g>
</svg>
