<?xml version="1.0" standalone="no"?>
<svg xmlns:xlink="http://www.w3.org/1999/xlink" id="wave" style="transform:rotate(0deg); transition: 0.3s" viewBox="0 0 1440 110" version="1.1" xmlns="http://www.w3.org/2000/svg"><defs><linearGradient id="sw-gradient-0" x1="0" x2="0" y1="1" y2="0"><stop stop-color="rgba(41, 43, 44, 1)" offset="0%"/><stop stop-color="rgba(41, 43, 44, 1)" offset="100%"/></linearGradient></defs><path style="transform:translate(0, 0px); opacity:1" fill="url(#sw-gradient-0)" d="M0,99L1440,44L2880,88L4320,88L5760,66L7200,66L8640,11L10080,77L11520,0L12960,0L14400,33L15840,0L17280,66L18720,99L20160,66L21600,0L23040,22L24480,55L25920,55L27360,11L28800,22L30240,44L31680,66L33120,0L34560,77L34560,110L33120,110L31680,110L30240,110L28800,110L27360,110L25920,110L24480,110L23040,110L21600,110L20160,110L18720,110L17280,110L15840,110L14400,110L12960,110L11520,110L10080,110L8640,110L7200,110L5760,110L4320,110L2880,110L1440,110L0,110Z"/></svg>